<?xml version="1.0" encoding="UTF-8" standalone="no"?>
<!-- Created with Inkscape (http://www.inkscape.org/) -->

<svg
   xmlns:dc="http://purl.org/dc/elements/1.1/"
   xmlns:cc="http://creativecommons.org/ns#"
   xmlns:rdf="http://www.w3.org/1999/02/22-rdf-syntax-ns#"
   xmlns:svg="http://www.w3.org/2000/svg"
   xmlns="http://www.w3.org/2000/svg"
   xmlns:xlink="http://www.w3.org/1999/xlink"
   xmlns:sodipodi="http://sodipodi.sourceforge.net/DTD/sodipodi-0.dtd"
   xmlns:inkscape="http://www.inkscape.org/namespaces/inkscape"
   width="400"
   height="100"
   id="svg2"
   version="1.1"
   inkscape:version="0.48.4 r9939"
   sodipodi:docname="New document 1">
  <defs
     id="defs4">
    <linearGradient
       inkscape:collect="always"
       id="linearGradient4048">
      <stop
         style="stop-color:#003300;stop-opacity:1;"
         offset="0"
         id="stop4050" />
      <stop
         style="stop-color:#003300;stop-opacity:0;"
         offset="1"
         id="stop4052" />
    </linearGradient>
    <linearGradient
       inkscape:collect="always"
       id="linearGradient3946">
      <stop
         style="stop-color:#003300;stop-opacity:1;"
         offset="0"
         id="stop3948" />
      <stop
         style="stop-color:#003300;stop-opacity:0;"
         offset="1"
         id="stop3950" />
    </linearGradient>
    <linearGradient
       id="linearGradient3918">
      <stop
         style="stop-color:#003300;stop-opacity:1;"
         offset="0"
         id="stop3920" />
      <stop
         style="stop-color:#003300;stop-opacity:0;"
         offset="1"
         id="stop3922" />
    </linearGradient>
    <linearGradient
       inkscape:collect="always"
       xlink:href="#linearGradient3918"
       id="linearGradient3924"
       x1="175.76654"
       y1="16.152237"
       x2="177.28177"
       y2="103.02535"
       gradientUnits="userSpaceOnUse"
       gradientTransform="translate(-3.0304576,935.69977)" />
    <linearGradient
       inkscape:collect="always"
       xlink:href="#linearGradient3946"
       id="linearGradient3952"
       x1="261.62952"
       y1="99.994896"
       x2="262.13458"
       y2="183.83755"
       gradientUnits="userSpaceOnUse"
       gradientTransform="translate(-196.47467,867.51448)" />
    <linearGradient
       inkscape:collect="always"
       xlink:href="#linearGradient4048"
       id="linearGradient4054"
       x1="270.21582"
       y1="104.54058"
       x2="271.73105"
       y2="189.3934"
       gradientUnits="userSpaceOnUse"
       gradientTransform="translate(10.101525,873.07032)" />
  </defs>
  <sodipodi:namedview
     id="base"
     pagecolor="#ffffff"
     bordercolor="#666666"
     borderopacity="1.0"
     inkscape:pageopacity="0.0"
     inkscape:pageshadow="2"
     inkscape:zoom="1.979899"
     inkscape:cx="272.09881"
     inkscape:cy="129.46183"
     inkscape:document-units="px"
     inkscape:current-layer="layer1"
     showgrid="false"
     inkscape:showpageshadow="false"
     borderlayer="false"
     inkscape:window-width="1600"
     inkscape:window-height="851"
     inkscape:window-x="0"
     inkscape:window-y="25"
     inkscape:window-maximized="1" />
  <metadata
     id="metadata7">
    <rdf:RDF>
      <cc:Work
         rdf:about="">
        <dc:format>image/svg+xml</dc:format>
        <dc:type
           rdf:resource="http://purl.org/dc/dcmitype/StillImage" />
        <dc:title></dc:title>
      </cc:Work>
    </rdf:RDF>
  </metadata>
  <g
     inkscape:label="Layer 1"
     inkscape:groupmode="layer"
     id="layer1"
     transform="translate(0,-952.36218)">
    <path
       style="fill:url(#linearGradient3924);fill-opacity:1"
       d="m 130.5633,957.41852 c -9.64204,0 -17.82328,4.84107 -20.78125,11.59375 -10.431458,0.0322 -18.875008,8.05484 -18.875008,17.9375 0,8.74698 6.62173,16.01283 15.375008,17.59373 1.56473,9.6056 11.39878,17 23.28125,17 5.6486,0 10.82346,-1.682 14.875,-4.4687 6.18972,3.1154 14.11416,4.9687 22.75,4.9687 11.75931,0 22.17917,-3.455 28.71875,-8.8125 0.009,0 0.0218,-0 0.0312,0 8.37937,2.6899 18.91191,4.2813 30.34375,4.2813 27.3367,0 49.5,-9.1715 49.5,-20.46878 0,-8.728 -13.25297,-16.15595 -31.875,-19.09375 -0.98459,-8.36157 -15.39806,-15 -33.03125,-15 -8.75483,0 -16.70766,1.67344 -22.625,4.34375 -3.79842,-5.29359 -11.25961,-8.875 -19.8125,-8.875 -7.87532,0 -14.76748,3.07185 -18.78125,7.6875 -3.77832,-5.1938 -10.9032,-8.6875 -19.09375,-8.6875 z"
       id="path3861"
       inkscape:connector-curvature="0" />
    <path
       style="fill:url(#linearGradient3952);fill-opacity:1"
       d="m 66.431581,982.67073 c -7.65776,0 -14.48245,2.70363 -18.875,6.9375 -1.88361,-0.88043 -3.94817,-1.40625 -6.125,-1.40625 -8.64732,0 -15.6875,7.70334 -15.6875,17.18752 0,1.6301 0.23811,3.1934 0.625,4.6875 -9.73518,1.7056 -16.7812497,6.6588 -16.7812497,12.5 0,7.2526 10.8605997,13.125 24.2499997,13.125 3.3964,0 6.62813,-0.3795 9.5625,-1.0625 3.81168,6.3669 10.87417,10.6562 18.96875,10.6562 9.19692,0 17.06913,-5.5403 20.34375,-13.375 3.65248,0.7917 7.61667,1.25 11.75,1.25 18.410429,0 33.312499,-8.5875 33.312499,-19.1875 0,-10.5999 -14.90207,-19.18747 -33.312499,-19.18747 -1.80803,0 -3.58254,0.0905 -5.3125,0.25 -3.19672,-7.19485 -12.14772,-12.375 -22.71875,-12.375 z"
       id="path3926"
       inkscape:connector-curvature="0" />
    <path
       sodipodi:type="arc"
       style="fill:#008000;fill-opacity:0"
       id="path3954"
       sodipodi:cx="169.70563"
       sodipodi:cy="136.86546"
       sodipodi:rx="20.708128"
       sodipodi:ry="21.213203"
       d="m 190.41376,136.86546 c 0,11.71573 -9.27135,21.21321 -20.70813,21.21321 -11.43679,0 -20.70813,-9.49748 -20.70813,-21.21321 0,-11.71573 9.27134,-21.2132 20.70813,-21.2132 11.43678,0 20.70813,9.49747 20.70813,21.2132 z"
       transform="translate(0,852.36218)" />
    <path
       style="fill:#000000;fill-opacity:0"
       d="m 311.625,118.6875 c -9.87793,0 -18.48433,2.67245 -22.96875,6.625 -6.09134,-2.2325 -14.25945,-3.59375 -23.25,-3.59375 -11.90914,0 -22.37212,2.39882 -28.46875,6.03125 -2.15915,-0.62492 -4.45969,-1 -6.875,-1 -11.57626,0 -20.96875,7.81387 -20.96875,17.4375 0,1.81865 0.34701,3.5706 0.96875,5.21875 -2.47062,1.99502 -4,4.67839 -4,7.65625 0,6.13681 6.45629,11.125 14.40625,11.125 3.32694,0 6.3748,-0.8807 8.8125,-2.34375 3.46079,7.55604 12.55933,12.9375 23.25,12.9375 9.88327,0 18.40851,-4.61468 22.375,-11.28125 8.14102,2.02235 18.0169,3.21875 28.65625,3.21875 13.58834,0 25.89044,-1.95146 34.96875,-5.09375 5.59945,2.77811 14.21121,4.5625 23.875,4.5625 16.87623,0 30.53125,-5.39905 30.53125,-12.09375 0,-4.59276 -6.41428,-8.63087 -15.90625,-10.6875 1.14513,-1.57589 1.78125,-3.26119 1.78125,-5 0,-9.20522 -17.31689,-16.65625 -38.65625,-16.65625 -1.69143,0 -3.33469,0.0653 -4.96875,0.15625 -4.27929,-4.26617 -13.21244,-7.21875 -23.5625,-7.21875 z"
       transform="translate(0,852.36218)"
       id="path3987"
       inkscape:connector-curvature="0" />
    <path
       style="fill:url(#linearGradient4054);fill-opacity:1"
       d="m 289.91403,989.72657 c -10.25126,0 -19.41631,2.56777 -25.53125,6.59375 -4.64159,-1.28608 -10.05795,-2.03125 -15.875,-2.03125 -14.15389,0 -26.07671,4.37484 -29.6875,10.34373 -1.63283,-0.485 -3.38435,-0.75 -5.1875,-0.75 -9.48416,0 -17.15625,7.23 -17.15625,16.1563 0,8.9262 7.67209,16.1562 17.15625,16.1562 4.25629,0 8.1559,-1.4615 11.15625,-3.875 0.69626,8.6432 11.27953,15.5 24.21875,15.5 9.57095,0 17.83951,-3.7657 21.78125,-9.2187 5.17818,1.043 10.95669,1.625 17.09375,1.625 0.54819,0 1.08225,-0.022 1.625,-0.031 4.92292,3.7907 11.44532,6.0937 18.59375,6.0937 9.28381,0 17.48697,-3.8964 22.53125,-9.875 5.04548,1.1238 11.19935,1.8125 17.875,1.8125 15.49228,0 28.29709,-3.5809 30.46875,-8.2187 8.51439,-0.6516 14.96875,-3.8345 14.96875,-7.6875 0,-4.0855 -7.25821,-7.4553 -16.53125,-7.8125 0.2625,-0.9155 0.375,-1.858 0.375,-2.8125 0,-10.1816 -15.48595,-18.43753 -34.59375,-18.43753 -9.63743,0 -18.35155,2.11231 -24.625,5.5 -5.81163,-5.40412 -16.46164,-9.03125 -28.65625,-9.03125 z m -59.09375,30.25003 c 0.18149,0.059 0.34691,0.1307 0.53125,0.1875 -0.18967,0.1365 -0.37975,0.2653 -0.5625,0.4062 0.006,-0.1776 0.0312,-0.3523 0.0312,-0.5312 0,-0.021 8e-5,-0.041 0,-0.062 z"
       id="path4019"
       inkscape:connector-curvature="0" />
    <path
       sodipodi:type="star"
       style="fill:#800000;fill-opacity:0;stroke-opacity:1"
       id="path4056"
       sodipodi:sides="50"
       sodipodi:cx="100.0051"
       sodipodi:cy="139.89592"
       sodipodi:r1="64.30555"
       sodipodi:r2="32.152775"
       sodipodi:arg1="0.57275324"
       sodipodi:arg2="0.63558509"
       inkscape:flatsided="false"
       inkscape:rounded="0"
       inkscape:randomized="0"
       d="m 154.04826,174.74618 -28.16904,-15.76282 23.37499,22.26142 -25.9713,-19.16904 20.40057,25.01554 -23.364,-22.27295 17.10444,27.37516 -20.38823,-25.02561 13.53855,29.30305 -17.09092,-27.3836 9.75914,30.76882 -13.52407,-29.30973 5.82583,31.74933 -9.74395,-30.77362 1.80064,32.22915 -5.81015,-31.75221 -2.25294,32.2007 -1.784737,-32.23004 -6.270988,31.66442 2.268832,-32.19958 -10.190144,30.62877 6.286619,-31.66132 -13.948595,29.11009 10.205263,-30.62374 -17.487068,27.13233 13.962964,-29.1032 -20.74976,24.72667 17.50046,-27.12369 -23.685215,21.93106 20.761964,-24.71643 -26.247141,18.78959 23.696039,-21.91937 -28.395134,15.35178 26.256414,-18.77662 -30.095318,11.67187 28.402709,-15.33776 -31.320881,7.8079 30.101076,-11.65702 -32.052495,3.82078 31.324731,-7.79243 -32.278622,-0.22659 32.054378,-3.80496 -31.995697,-4.27039 32.278507,0.24253 -31.20818,-8.24684 31.993585,4.28618 L 38.992895,119.58053 70.197,127.84278 42.020188,112.09387 71.942705,124.20187 45.961938,105.04566 74.130971,120.80847 50.75598,98.54706 76.727287,117.7161 56.32671,92.700557 79.690709,114.97351 62.586275,87.598353 82.9745,112.62396 69.435957,83.320913 86.526874,110.70451 76.767732,79.935695 90.291808,109.24542 84.465975,77.496085 l 9.743951,30.773625 -1.800648,-32.229152 5.810159,31.752212 2.252933,-32.200702 1.78474,32.230042 6.27099,-31.664422 -2.26883,32.199582 10.19014,-30.628771 -6.28662,31.661321 13.9486,-29.110094 -10.20527,30.623744 17.48707,-27.132333 -13.96296,29.103203 20.74976,-24.726671 -17.50046,27.123691 23.68521,-21.931058 -20.76196,24.716428 26.24714,-18.789586 -23.69604,21.919366 28.39513,-15.35178 -26.25641,18.77662 30.09532,-11.67187 -28.40271,15.33776 31.32088,-7.8079 -30.10108,11.65702 32.0525,-3.82078 -31.32473,7.79243 32.27862,0.22659 -32.05438,3.80496 31.9957,4.27039 -32.27851,-0.24253 31.20818,8.24684 -31.99358,-4.28618 29.92849,12.09323 -31.20411,-8.26225 28.17681,15.74891 -29.92251,-12.108 z"
       transform="translate(0,852.36218)" />
  </g>
</svg>
